<?xml version="1.0" encoding="UTF-8" standalone="no"?>
<!DOCTYPE svg PUBLIC "-//W3C//DTD SVG 1.1//EN" "http://www.w3.org/Graphics/SVG/1.1/DTD/svg11.dtd">
<!-- Created with Vectornator (http://vectornator.io/) -->
<svg height="100%" stroke-miterlimit="10" style="fill-rule:nonzero;clip-rule:evenodd;stroke-linecap:round;stroke-linejoin:round;" version="1.1" viewBox="0 0 180 180" width="100%" xml:space="preserve" xmlns="http://www.w3.org/2000/svg" xmlns:vectornator="http://vectornator.io" xmlns:xlink="http://www.w3.org/1999/xlink">
<defs/>
<g id="레이어-1" vectornator:layerName="레이어 1">
<g opacity="1" vectornator:layerName="그룹 1">
<path d="M43.2466 156.845C40.8926 158.357 38.2703 159.114 35.3796 159.114C31.6352 159.114 28.3116 157.845 25.4087 155.308C22.2497 152.515 20.6703 148.948 20.6703 144.605C20.6703 140.349 22.1644 136.799 25.1526 133.958C28.0554 131.201 31.4827 129.823 35.4345 129.823C39.0204 129.823 42.2342 131.03 45.0761 133.445C48.4912 136.348 50.1987 140.135 50.1987 144.807C50.1987 148.466 48.851 151.716 46.1555 154.558L43.2466 156.845ZM43.1917 151.503C44.9968 149.624 45.8994 147.301 45.8994 144.532C45.8994 141.495 44.8931 138.952 42.8807 136.903C40.8682 134.854 38.3678 133.83 35.3796 133.83C32.3548 133.83 29.8667 134.854 27.9152 136.903C25.9515 138.94 24.9696 141.52 24.9696 144.642C24.9696 147.691 25.982 150.185 28.0066 152.125C30.1167 154.125 32.5256 155.125 35.2333 155.125C37.075 155.125 38.7398 154.704 40.2278 153.863L43.1917 151.503Z" fill="#0fa4ff" fill-rule="nonzero" opacity="1" stroke="none" vectornator:layerName="곡선 204"/>
<path d="M108.633 156.845C106.28 158.357 103.657 159.114 100.767 159.114C97.0221 159.114 93.6985 157.845 90.7957 155.308C87.6367 152.515 86.0572 148.948 86.0572 144.605C86.0572 140.349 87.5513 136.799 90.5395 133.958C93.4424 131.201 96.8697 129.823 100.821 129.823C104.407 129.823 107.621 131.03 110.463 133.445C113.878 136.348 115.586 140.135 115.586 144.807C115.586 148.466 114.238 151.716 111.542 154.558L108.633 156.845ZM108.579 151.503C110.384 149.624 111.286 147.301 111.286 144.532C111.286 141.495 110.28 138.952 108.268 136.903C106.255 134.854 103.755 133.83 100.767 133.83C97.7417 133.83 95.2536 134.854 93.3021 136.903C91.3384 138.94 90.3566 141.52 90.3566 144.642C90.3566 147.691 91.3689 150.185 93.3936 152.125C95.5036 154.125 97.9125 155.125 100.62 155.125C102.462 155.125 104.127 154.704 105.615 153.863L108.579 151.503Z" fill="#0fa4ff" fill-rule="nonzero" opacity="1" stroke="none" vectornator:layerName="곡선 205"/>
<path d="M58.889 140.782L58.889 151.009C58.889 153.96 60.0538 155.436 62.3834 155.436C64.713 155.436 65.8777 153.96 65.8777 151.009L65.8777 140.782L69.9942 140.782L69.9942 151.1C69.9942 152.527 69.8173 153.759 69.4636 154.796C69.1221 155.723 68.5306 156.558 67.689 157.302C66.2985 158.51 64.53 159.114 62.3834 159.114C60.2489 159.114 58.4865 158.51 57.096 157.302C56.2423 156.558 55.6385 155.723 55.2848 154.796C54.9433 153.966 54.7725 152.735 54.7725 151.1L54.7725 140.782L58.889 140.782Z" fill="#1a1d34" fill-rule="nonzero" opacity="1" stroke="none" vectornator:layerName="곡선 206"/>
<path d="M80.2395 130.353L80.2395 158.601L75.9767 158.601L75.9767 130.353L80.2395 130.353Z" fill="#1a1d34" fill-rule="nonzero" opacity="1" stroke="none" vectornator:layerName="곡선 207"/>
<path d="M141.382 131.872L141.382 136.921C138.918 134.86 136.369 133.83 133.735 133.83C130.832 133.83 128.386 134.872 126.398 136.958C124.398 139.031 123.398 141.568 123.398 144.569C123.398 147.533 124.398 150.033 126.398 152.07C128.399 154.107 130.85 155.125 133.753 155.125C135.253 155.125 136.528 154.881 137.577 154.393C138.162 154.149 138.769 153.82 139.397 153.405C140.025 152.991 140.687 152.491 141.382 151.905L141.382 157.046C138.943 158.424 136.381 159.114 133.698 159.114C129.661 159.114 126.215 157.705 123.361 154.887C120.519 152.046 119.099 148.618 119.099 144.605C119.099 141.007 120.288 137.8 122.666 134.982C125.593 131.53 129.38 129.805 134.027 129.805C136.564 129.805 139.016 130.494 141.382 131.872Z" fill="#1a1d34" fill-rule="nonzero" opacity="1" stroke="none" vectornator:layerName="곡선 208"/>
<path d="M151.024 130.353L151.024 154.595L159.33 154.595L159.33 158.601L146.761 158.601L146.761 130.353L151.024 130.353Z" fill="#1a1d34" fill-rule="nonzero" opacity="1" stroke="none" vectornator:layerName="곡선 209"/>
<path d="M73.0785 154.401L83.1657 154.401L83.1657 158.611L73.0785 158.611L73.0785 154.401Z" fill="#1a1d34" fill-rule="nonzero" opacity="1" stroke="none" vectornator:layerName="직사각형 38"/>
<path d="M73.0785 130.262L83.1657 130.262L83.1657 134.472L73.0785 134.472L73.0785 130.262Z" fill="#1a1d34" fill-rule="nonzero" opacity="1" stroke="none" vectornator:layerName="직사각형 39"/>
<path d="M93.8233 19.6611L64.6068 19.7338C63.5455 19.7365 62.0784 20.3487 61.3301 21.1013L40.7294 41.8184C39.981 42.571 39.3765 44.0415 39.3791 45.1028L39.4519 74.3193C39.4546 75.3806 40.0668 76.8477 40.8194 77.5961L61.5365 98.1967C62.2891 98.9451 63.7596 99.5496 64.8209 99.547L94.0374 99.4742C95.0987 99.4716 96.5658 98.8593 97.3141 98.1067L117.915 77.3896C118.663 76.637 119.267 75.1665 119.265 74.1052L119.185 44.8887C119.182 43.8274 118.569 42.3602 117.817 41.6117L97.1075 21.0115C96.355 20.263 94.8846 19.6584 93.8233 19.6611ZM90.5658 32.238L105.743 47.3223C106.233 47.8092 106.632 48.7638 106.634 49.4545L106.685 69.6053C106.687 70.296 106.293 71.2529 105.806 71.7425L91.596 86.0258C91.1089 86.5155 90.154 86.9138 89.4633 86.9156L69.3208 86.9669C68.6301 86.9686 67.6732 86.5751 67.1836 86.088L52.9003 71.878C52.4106 71.3908 52.0123 70.436 52.0105 69.7452L51.9592 49.6028C51.9575 48.912 52.3509 47.9551 52.8379 47.4653L67.922 32.2956C71.8436 32.2852 86.6335 32.2484 90.5658 32.238Z" fill="#0fa4ff" fill-rule="nonzero" opacity="1" stroke="none" vectornator:layerName="곡선 216"/>
<path d="M93.8233 99.547L64.6068 99.4742C63.5455 99.4716 62.0784 98.8593 61.3301 98.1067L40.7294 77.3896C39.981 76.637 39.3765 75.1665 39.3791 74.1052L39.4519 44.8887C39.4546 43.8274 40.0668 42.3603 40.8194 41.612L61.5365 21.0113C62.2891 20.2629 63.7596 19.6584 64.8209 19.6611L94.0374 19.7338C95.0987 19.7365 96.5658 20.3487 97.3141 21.1013L117.915 41.8184C118.663 42.571 119.267 44.0415 119.265 45.1028L119.185 74.3193C119.182 75.3806 118.569 76.8478 117.817 77.5963L97.1075 98.1965C96.355 98.945 94.8846 99.5496 93.8233 99.547ZM90.5658 86.97L105.743 71.8857C106.233 71.3988 106.632 70.4442 106.634 69.7535L106.685 49.6028C106.687 48.912 106.293 47.9552 105.806 47.4655L91.596 33.1822C91.1089 32.6926 90.154 32.2942 89.4633 32.2924L69.3208 32.2412C68.6301 32.2394 67.6732 32.6329 67.1836 33.12L52.9003 47.3301C52.4106 47.8172 52.0123 48.7721 52.0105 49.4628L51.9592 69.6053C51.9575 70.296 52.3509 71.253 52.8379 71.7428L67.922 86.9124C71.8436 86.9228 86.6335 86.9596 90.5658 86.97Z" fill="#0fa4ff" fill-rule="nonzero" opacity="1" stroke="none" vectornator:layerName="곡선 210"/>
<path d="M110.796 36.6336L81.5794 36.7064C80.518 36.709 79.051 37.3213 78.3026 38.0739L57.702 58.791C56.9536 59.5436 56.3491 61.014 56.3517 62.0754L56.4245 91.2918C56.4271 92.3532 57.0394 93.8202 57.792 94.5686L78.509 115.169C79.2616 115.918 80.7321 116.522 81.7935 116.52L111.01 116.447C112.071 116.444 113.538 115.832 114.287 115.079L134.887 94.3622C135.636 93.6096 136.24 92.1391 136.237 91.0778L136.157 61.8613C136.154 60.8 135.542 59.3328 134.789 58.5843L114.08 37.9841C113.328 37.2356 111.857 36.631 110.796 36.6336ZM107.538 49.2105L122.716 64.2948C123.206 64.7817 123.604 65.7364 123.606 66.4271L123.658 86.5778C123.659 87.2685 123.266 88.2254 122.779 88.7151L108.569 102.998C108.081 103.488 107.127 103.886 106.436 103.888L86.2934 103.939C85.6027 103.941 84.6458 103.548 84.1561 103.061L69.8729 88.8505C69.3832 88.3634 68.9848 87.4085 68.9831 86.7178L68.9318 66.5753C68.93 65.8846 69.3234 64.9276 69.8105 64.4378L84.8945 49.2682C88.8162 49.2578 103.606 49.221 107.538 49.2105Z" fill="#1a1d34" fill-rule="nonzero" opacity="1" stroke="none" vectornator:layerName="곡선 211"/>
<path d="M110.796 116.52L81.5794 116.447C80.518 116.444 79.051 115.832 78.3026 115.079L57.702 94.3622C56.9536 93.6096 56.3491 92.1391 56.3517 91.0778L56.4245 61.8613C56.4271 60.8 57.0394 59.3329 57.792 58.5845L78.509 37.9839C79.2616 37.2355 80.7321 36.631 81.7935 36.6336L111.01 36.7064C112.071 36.709 113.538 37.3213 114.287 38.0739L134.887 58.791C135.636 59.5436 136.24 61.014 136.237 62.0754L136.157 91.2919C136.154 92.3532 135.542 93.8204 134.789 94.5689L114.08 115.169C113.328 115.918 111.857 116.522 110.796 116.52ZM107.538 103.943L122.716 88.8583C123.206 88.3714 123.604 87.4168 123.606 86.726L123.658 66.5753C123.659 65.8846 123.266 64.9277 122.779 64.4381L108.569 50.1548C108.081 49.6651 107.127 49.2667 106.436 49.265L86.2934 49.2137C85.6027 49.212 84.6458 49.6055 84.1561 50.0926L69.8729 64.3026C69.3832 64.7898 68.9848 65.7446 68.9831 66.4353L68.9318 86.5778C68.93 87.2685 69.3234 88.2255 69.8105 88.7153L84.8945 103.885C88.8162 103.895 103.606 103.932 107.538 103.943Z" fill="#1a1d34" fill-rule="nonzero" opacity="1" stroke="none" vectornator:layerName="곡선 212"/>
<path d="M87.6339 60.5106C85.9802 60.4695 84.305 61.0252 83.0103 62.194C80.4208 64.5314 80.3156 68.4216 82.7732 70.8845L126.334 114.538C128.791 117.001 132.882 117.101 135.471 114.764C138.06 112.426 138.166 108.536 135.708 106.073L92.1475 62.4195C90.9187 61.1881 89.2877 60.5517 87.6339 60.5106Z" fill="#0fa4ff" fill-rule="nonzero" opacity="1" stroke="none" vectornator:layerName="곡선 213"/>
<path d="M36.7059 144.616C36.1215 144.705 35.584 145.008 35.2059 145.522C34.4497 146.55 34.6785 147.985 35.7059 148.741L49.3622 158.803C50.3896 159.56 51.8247 159.362 52.5809 158.335C53.3372 157.307 53.1084 155.841 52.0809 155.085L38.4247 145.022C37.9109 144.644 37.2904 144.527 36.7059 144.616Z" fill="#0fa4ff" fill-rule="nonzero" opacity="1" stroke="none" vectornator:layerName="곡선 214"/>
<path d="M102.112 144.616C101.528 144.705 100.959 145.008 100.581 145.522C99.8247 146.55 100.053 147.985 101.081 148.741L114.737 158.803C115.765 159.56 117.231 159.362 117.987 158.335C118.743 157.307 118.515 155.841 117.487 155.085L103.831 145.022C103.317 144.644 102.697 144.527 102.112 144.616Z" fill="#0fa4ff" fill-rule="nonzero" opacity="1" stroke="none" vectornator:layerName="곡선 215"/>
</g>
</g>
</svg>
